<svg width="313" height="313" viewBox="0 0 313 313" fill="none" xmlns="http://www.w3.org/2000/svg">
<path d="M306.841 271.787C300.844 264.687 228.177 230.886 214.991 224.509C201.874 218.245 196.642 200.885 196.642 200.885C196.642 200.885 190.738 204.81 190.738 193.785C190.738 182.745 196.642 200.885 202.546 158.312C202.546 158.312 218.927 152.786 215.674 107.081H211.738C211.738 107.081 221.578 58.2165 211.738 41.6777C201.863 25.1389 197.996 14.113 176.313 6.20555C154.664 -1.68797 162.537 -0.114833 146.815 0.692617C131.071 1.48615 117.966 11.7324 117.966 17.2314C117.966 17.2314 108.126 18.025 104.213 22.7583C100.277 27.4916 93.7243 49.5434 93.7243 55.0563C93.7243 60.5692 97.0005 97.6563 100.277 105.508L96.3754 107.039C93.0991 152.758 109.48 158.299 109.48 158.299C115.384 200.871 121.289 182.731 121.289 193.771C121.289 204.797 115.384 200.871 115.384 200.871C115.384 200.871 110.14 218.217 97.0352 224.496C83.9303 230.802 11.182 264.687 5.2663 271.773C-0.63785 279.012 0.0220242 312.09 0.0220242 312.09H139.36L149.524 263.921L140.494 253.063L156.042 234.338L171.59 253.049L162.56 263.907L172.724 312.076H312.062C312.062 312.076 312.791 278.971 306.818 271.745L306.841 271.787Z" fill="#FFD53B"/>
</svg>
