<svg width="296" height="313" viewBox="0 0 296 313" fill="none" xmlns="http://www.w3.org/2000/svg">
<path d="M294.212 282.473L272.881 218.463H249.474L262.473 280.881H33.6172L46.6158 218.463H23.209L1.86209 282.473C-3.55268 298.764 6.04409 312.09 23.209 312.09H272.881C290.046 312.09 299.643 298.764 294.212 282.473ZM226.068 78.0225C226.068 57.3296 217.847 37.4843 203.215 22.8523C188.583 8.2202 168.738 0 148.045 0C127.352 0 107.507 8.2202 92.8748 22.8523C78.2427 37.4843 70.0225 57.3296 70.0225 78.0225C70.0225 152.534 148.045 234.067 148.045 234.067C148.045 234.067 226.068 152.534 226.068 78.0225ZM105.913 78.9588C105.913 55.6925 124.763 36.8422 148.045 36.8422C159.217 36.8422 169.932 41.2803 177.831 49.1802C185.731 57.08 190.169 67.7945 190.169 78.9666C190.169 90.1386 185.731 100.853 177.831 108.753C169.932 116.653 159.217 121.091 148.045 121.091C136.871 121.091 126.154 116.652 118.253 108.751C110.352 100.849 105.913 90.1329 105.913 78.9588V78.9588Z" fill="#FFD53B"/>
</svg>
