<svg width="313" height="313" viewBox="0 0 313 313" fill="none" xmlns="http://www.w3.org/2000/svg">
<path d="M174.988 312.091L149.791 252.886C174.061 243.92 196.785 231.862 217.808 217.795L174.988 312.091V312.091ZM59.2054 162.3L0 137.103L94.2958 94.2831C80.2287 115.306 68.1712 138.03 59.2054 162.3ZM306.075 6.01605C306.075 6.01605 229.556 -26.7711 142.062 60.7385C108.208 94.5923 87.9579 131.847 74.8183 164.464C70.49 176.058 73.4271 188.734 81.9292 197.39L114.855 230.162C123.357 238.819 136.033 241.601 147.627 237.273C186.56 222.428 221.909 199.511 251.352 170.029C338.847 82.5348 306.075 6.01605 306.075 6.01605V6.01605ZM196.785 115.306C184.727 103.249 184.727 83.6169 196.785 71.5594C208.842 59.5019 228.474 59.5019 240.532 71.5594C252.435 83.6169 252.589 103.249 240.532 115.306C228.474 127.364 208.842 127.364 196.785 115.306V115.306ZM109.29 224.597L87.4942 202.801L109.29 224.597ZM68.4804 309.154L124.749 252.886C119.493 251.494 114.392 249.176 109.754 245.929L46.6842 309.154H68.4804ZM2.93708 309.154H24.7333L98.4696 235.572L76.5188 213.776L2.93708 287.358V309.154ZM2.93708 265.407L66.1617 202.337C62.9154 197.699 60.5967 192.753 59.2054 187.342L2.93708 243.611V265.407Z" fill="#FFD53B"/>
</svg>
